<?xml version="1.0" encoding="UTF-8" standalone="no"?>
<!-- Created with Inkscape (http://www.inkscape.org/) -->

<svg
   width="94.867546mm"
   height="29.412794mm"
   viewBox="0 0 94.867546 29.412794"
   version="1.1"
   id="svg7974"
   xml:space="preserve"
   inkscape:version="1.2.1 (9c6d41e410, 2022-07-14)"
   sodipodi:docname="icon-with-name.svg"
   xmlns:inkscape="http://www.inkscape.org/namespaces/inkscape"
   xmlns:sodipodi="http://sodipodi.sourceforge.net/DTD/sodipodi-0.dtd"
   xmlns="http://www.w3.org/2000/svg"
   xmlns:svg="http://www.w3.org/2000/svg"><sodipodi:namedview
     id="namedview7976"
     pagecolor="#ffffff"
     bordercolor="#000000"
     borderopacity="0.25"
     inkscape:showpageshadow="2"
     inkscape:pageopacity="0.0"
     inkscape:pagecheckerboard="0"
     inkscape:deskcolor="#d1d1d1"
     inkscape:document-units="mm"
     showgrid="false"
     inkscape:zoom="1.5091049"
     inkscape:cx="287.91901"
     inkscape:cy="10.602311"
     inkscape:window-width="1920"
     inkscape:window-height="1027"
     inkscape:window-x="-8"
     inkscape:window-y="-8"
     inkscape:window-maximized="1"
     inkscape:current-layer="text8237" /><defs
     id="defs7971" /><g
     inkscape:label="Layer 1"
     inkscape:groupmode="layer"
     id="layer1"
     transform="translate(-45.573073,-31.111368)"><g
       id="g7916"
       transform="matrix(0.65674845,0,0,0.65674845,33.561254,25.7369)"><circle
         style="fill:#15559a;fill-opacity:1;stroke:#00549a;stroke-width:1.568;stroke-dasharray:none;stroke-opacity:1"
         id="path1256"
         r="21.60874"
         cy="30.576189"
         cx="40.682571" /><g
         id="g7895"
         transform="matrix(1.0931821,0,0,1.0931821,-6.4415105,-1.6922034)"><g
           id="g7812"
           transform="translate(-57.94375,-6.35)"><rect
             style="fill:none;stroke:#ffffff;stroke-width:0.907664;stroke-dasharray:none;stroke-opacity:1"
             id="rect231"
             width="21.022642"
             height="21.022642"
             x="91.541031"
             y="24.964003" /><g
             id="g972"
             transform="matrix(0.6732157,0,0,0.6732157,78.533165,13.437948)"
             style="stroke:#ffffff;stroke-width:1.89092;stroke-dasharray:none;stroke-opacity:1"><g
               id="g966"
               transform="translate(0.10733367,0.04521528)"
               style="stroke:#ffffff;stroke-width:2.70672;stroke-dasharray:none;stroke-opacity:1"><g
                 id="g7823"
                 transform="translate(-0.41685451,0.06947575)"
                 style="stroke-width:2.70672;stroke-dasharray:none"><g
                   id="g7816"
                   style="stroke-width:2.70672;stroke-dasharray:none"><g
                     id="g7945"
                     transform="translate(-0.53927091,0.08987849)"><path
                       style="fill:none;stroke:#ffffff;stroke-width:2.70672;stroke-dasharray:none;stroke-opacity:1"
                       d="M 47.206795,20.867599 33.254054,34.820339"
                       id="path958" /><path
                       style="fill:none;stroke:#ffffff;stroke-width:2.70672;stroke-dasharray:none;stroke-opacity:1"
                       d="M 37.37809,21.263989 H 48.163764"
                       id="path960" /><path
                       style="fill:none;stroke:#ffffff;stroke-width:2.70672;stroke-dasharray:none;stroke-opacity:1"
                       d="M 46.810406,30.696303 V 19.910629"
                       id="path962" /></g></g></g></g></g><g
             id="g1254"
             transform="matrix(0.67474447,0,0,0.67474447,82.716327,10.712604)"
             style="fill:#ffffff;fill-opacity:1"><g
               id="g1188"
               style="fill:#ffffff;fill-opacity:1"><path
                 id="rect1026"
                 style="fill:#ffffff;fill-opacity:1;stroke:none;stroke-width:1.20355;stroke-dasharray:none;stroke-opacity:1"
                 d="m 10.1532,39.114226 v 14.9995 h 8.954514 a 8.2594843,7.5 0 0 0 0.0046,0 8.2594843,7.5 0 0 0 7.1486,-3.749684 8.2594843,7.5 0 0 0 0,-7.500132 8.2594843,7.5 0 0 0 -7.1486,-3.749684 h -0.0046 z" /></g><g
               id="g1245"
               transform="translate(0,0.11336016)"
               style="fill:#ffffff;fill-opacity:1;stroke:#ffffff;stroke-opacity:1"><path
                 style="fill:#ffffff;fill-opacity:1;stroke:#ffffff;stroke-width:1.568;stroke-dasharray:none;stroke-opacity:1"
                 d="M 5.8869791,42.134895 H 10.517187"
                 id="path1190" /><path
                 style="fill:#ffffff;fill-opacity:1;stroke:#ffffff;stroke-width:1.568;stroke-dasharray:none;stroke-opacity:1"
                 d="M 5.8869791,50.866145 H 10.517187"
                 id="path1239" /></g><path
               style="fill:#ffffff;fill-opacity:1;stroke:#ffffff;stroke-width:1.568;stroke-dasharray:none;stroke-opacity:1"
               d="m 26.458333,46.61388 h 4.630208"
               id="path1241" /></g></g></g></g><g
       aria-label="Scaleda"
       id="text8237"
       style="font-weight:600;font-size:18.5358px;font-family:Lato;-inkscape-font-specification:'Lato, Semi-Bold';fill:#ffffff;stroke:#ffffff;stroke-width:0.537098"><path
         d="m 89.052828,41.11552 q -0.101947,0.166822 -0.213161,0.250233 -0.111215,0.07414 -0.278037,0.07414 -0.17609,0 -0.39852,-0.148286 -0.213162,-0.148287 -0.537538,-0.324377 -0.315109,-0.185358 -0.7507,-0.333644 -0.435592,-0.157555 -1.038005,-0.157555 -0.556074,0 -0.982398,0.139019 -0.417055,0.139018 -0.70436,0.389252 -0.287305,0.250233 -0.435591,0.593145 -0.139019,0.333645 -0.139019,0.732164 0,0.509735 0.268769,0.852647 0.268769,0.333645 0.704361,0.57461 0.444859,0.240966 1.010201,0.426324 0.565342,0.17609 1.14922,0.379983 0.593145,0.203894 1.158487,0.463396 0.565342,0.259501 1.000933,0.65802 0.44486,0.39852 0.713629,0.97313 0.268769,0.57461 0.268769,1.399453 0,0.889718 -0.305841,1.668222 -0.305841,0.778504 -0.889718,1.362381 -0.57461,0.57461 -1.427257,0.908255 -0.843379,0.333644 -1.927723,0.333644 -0.639485,0 -1.251167,-0.129751 -0.602413,-0.120482 -1.158487,-0.342912 -0.546807,-0.231697 -1.028737,-0.556074 -0.481931,-0.324376 -0.861915,-0.722896 l 0.630217,-1.038005 q 0.08341,-0.129751 0.213162,-0.203894 0.12975,-0.07414 0.287305,-0.07414 0.213161,0 0.472663,0.203894 0.259501,0.194626 0.620949,0.435591 0.370716,0.231698 0.889718,0.435591 0.519003,0.194626 1.241899,0.194626 1.177023,0 1.816509,-0.574609 0.648753,-0.57461 0.648753,-1.584811 0,-0.565342 -0.26877,-0.917523 -0.268769,-0.361448 -0.713628,-0.602413 -0.435591,-0.240966 -1.000933,-0.407788 -0.565342,-0.166822 -1.14922,-0.35218 -0.583877,-0.194626 -1.149219,-0.444859 -0.565342,-0.259501 -1.010202,-0.667289 -0.435591,-0.417056 -0.70436,-1.019469 -0.268769,-0.611681 -0.268769,-1.519936 0,-0.722896 0.278037,-1.399453 0.287305,-0.676556 0.824843,-1.195559 0.546806,-0.52827 1.343846,-0.843379 0.797039,-0.315108 1.816508,-0.315108 1.14922,0 2.103814,0.361448 0.963861,0.361448 1.658954,1.028737 z"
         style="fill:#003048;fill-opacity:1;stroke:none"
         id="path8783" /><path
         d="m 98.459729,44.581714 q -0.09268,0.120483 -0.17609,0.185358 -0.08341,0.06488 -0.240966,0.06488 -0.157554,0 -0.333644,-0.111215 -0.166822,-0.111215 -0.407788,-0.240966 -0.231697,-0.139018 -0.565342,-0.250233 -0.333644,-0.111215 -0.834111,-0.111215 -0.648753,0 -1.139952,0.231698 -0.48193,0.231697 -0.815575,0.667289 -0.324376,0.426323 -0.491199,1.047272 -0.157554,0.611682 -0.157554,1.380918 0,0.797039 0.17609,1.417988 0.17609,0.62095 0.500467,1.047273 0.333644,0.426323 0.797039,0.648753 0.472663,0.22243 1.056541,0.22243 0.57461,0 0.936058,-0.139019 0.361448,-0.139018 0.602413,-0.305841 0.240966,-0.166822 0.407788,-0.30584 0.17609,-0.139019 0.370716,-0.139019 0.240966,0 0.370716,0.185358 l 0.565342,0.732164 q -0.342912,0.417056 -0.759968,0.704361 -0.417055,0.287305 -0.88045,0.472663 -0.463395,0.17609 -0.963862,0.250233 -0.500467,0.08341 -1.010201,0.08341 -0.880451,0 -1.649686,-0.324376 -0.759968,-0.333645 -1.334578,-0.954594 -0.565342,-0.630217 -0.898986,-1.529204 -0.324377,-0.908254 -0.324377,-2.066741 0,-1.047273 0.296573,-1.936992 0.296573,-0.898986 0.861915,-1.547739 0.574609,-0.648753 1.417988,-1.010201 0.843379,-0.370716 1.946259,-0.370716 1.028737,0 1.807241,0.333644 0.787772,0.333645 1.399453,0.945326 z"
         style="fill:#003048;fill-opacity:1;stroke:none"
         id="path8785" /><path
         d="m 105.72575,48.047909 q -1.0658,0.03707 -1.79797,0.17609 -0.73216,0.129751 -1.18629,0.342912 -0.45413,0.203894 -0.65802,0.491199 -0.19463,0.287305 -0.19463,0.630217 0,0.333645 0.10195,0.57461 0.11121,0.231698 0.29657,0.389252 0.19463,0.148287 0.44486,0.22243 0.2595,0.06488 0.56534,0.06488 0.77851,0 1.33458,-0.287305 0.56534,-0.296573 1.09361,-0.852647 z m -5.2827,-4.003733 q 1.60335,-1.492132 3.81838,-1.492132 0.81557,0 1.44579,0.268769 0.63948,0.259501 1.06581,0.741432 0.43559,0.481931 0.65802,1.14922 0.2317,0.658021 0.2317,1.464328 v 6.0056 h -0.88972 q -0.28731,0 -0.43559,-0.08341 -0.14829,-0.09268 -0.25024,-0.361449 l -0.19462,-0.769235 q -0.36145,0.324376 -0.71363,0.583877 -0.35218,0.250234 -0.73217,0.426324 -0.37071,0.17609 -0.8063,0.259501 -0.42633,0.09268 -0.94533,0.09268 -0.57461,0 -1.07508,-0.157554 -0.49119,-0.157555 -0.85264,-0.472663 -0.36145,-0.324377 -0.57461,-0.79704 -0.203896,-0.472663 -0.203896,-1.112148 0,-0.546806 0.287306,-1.065808 0.29657,-0.519003 0.96386,-0.92679 0.67656,-0.417056 1.77017,-0.685825 1.10288,-0.268769 2.71549,-0.305841 v -0.630217 q 0,-1.019469 -0.43559,-1.519936 -0.43559,-0.500466 -1.27897,-0.500466 -0.57461,0 -0.96386,0.148286 -0.38925,0.139019 -0.67656,0.305841 -0.2873,0.166822 -0.50973,0.315109 -0.22243,0.139018 -0.47266,0.139018 -0.2039,0 -0.35218,-0.101947 -0.13902,-0.111215 -0.2317,-0.268769 z"
         style="fill:#003048;fill-opacity:1;stroke:none"
         id="path8787" /><path
         d="m 112.01867,38.4649 v 13.716493 h -1.9926 V 38.4649 Z"
         style="fill:#003048;fill-opacity:1;stroke:none"
         id="path8789" /><path
         d="m 118.58962,44.007104 q -0.51901,0 -0.96387,0.213162 -0.43559,0.213162 -0.78777,0.593146 -0.34291,0.370716 -0.60241,0.889718 -0.25023,0.519003 -0.38925,1.130684 1.27897,-0.166822 2.05747,-0.370716 0.7785,-0.203894 1.19556,-0.444859 0.41706,-0.240966 0.55607,-0.509735 0.13902,-0.278037 0.13902,-0.583877 0,-0.148287 -0.0649,-0.315109 -0.0649,-0.166822 -0.21316,-0.296573 -0.13902,-0.12975 -0.37072,-0.213162 -0.2317,-0.09268 -0.55607,-0.09268 z m 2.7711,6.422655 q -0.48193,0.491199 -0.94533,0.852647 -0.46339,0.352181 -0.94532,0.583878 -0.48194,0.231698 -1.01021,0.342912 -0.52827,0.111215 -1.14922,0.111215 -0.82484,0 -1.48286,-0.278037 -0.65802,-0.278037 -1.13068,-0.778503 -0.4634,-0.509735 -0.71363,-1.223363 -0.25023,-0.722897 -0.25023,-1.612615 0,-0.741432 0.15755,-1.45506 0.15755,-0.722897 0.45413,-1.37165 0.30584,-0.648753 0.73216,-1.195559 0.43559,-0.556074 0.9824,-0.954594 0.55607,-0.398519 1.21409,-0.620949 0.66729,-0.231697 1.42726,-0.231697 0.73216,0 1.2697,0.213161 0.53754,0.203894 0.88972,0.537539 0.36145,0.324376 0.53754,0.722896 0.17609,0.398519 0.17609,0.778503 0,0.62095 -0.2595,1.139952 -0.25024,0.519003 -0.90826,0.936058 -0.65802,0.417056 -1.80724,0.722896 -1.13995,0.305841 -2.92865,0.491199 -0.009,0.05561 -0.009,0.120483 0,0.05561 0,0.120482 0,1.177024 0.50973,1.779437 0.50974,0.593146 1.52921,0.593146 0.63948,0 1.06581,-0.17609 0.42632,-0.17609 0.72289,-0.379984 0.30584,-0.213162 0.52827,-0.389252 0.2317,-0.17609 0.48193,-0.17609 0.19463,0 0.36145,0.185358 z"
         style="font-style:italic;-inkscape-font-specification:'Lato, Semi-Bold Italic';fill:#003055;fill-opacity:1;stroke:none"
         id="path8791" /><path
         d="m 129.2477,44.859751 q -0.33365,-0.407787 -0.78777,-0.565342 -0.44486,-0.166822 -0.88972,-0.166822 -0.66729,0 -1.2141,0.407788 -0.53754,0.39852 -0.92679,1.047273 -0.37998,0.639485 -0.59314,1.445792 -0.2039,0.797039 -0.2039,1.594079 0,1.047273 0.36145,1.575543 0.36145,0.52827 1.0102,0.52827 0.40779,0 0.83411,-0.268769 0.42633,-0.268769 0.81558,-0.741432 0.38925,-0.472663 0.7229,-1.121416 0.34291,-0.648753 0.58387,-1.408721 z m 2.7433,-6.394851 -1.69603,13.716493 h -1.04727 q -0.37999,0 -0.519,-0.194626 -0.12975,-0.194626 -0.12975,-0.481931 l 0.12048,-1.612615 q -0.35218,0.556074 -0.7507,1.000934 -0.39852,0.444859 -0.84338,0.769235 -0.43559,0.315109 -0.90826,0.491199 -0.47266,0.166822 -0.97312,0.166822 -1.19556,0 -1.89066,-0.871182 -0.68582,-0.880451 -0.68582,-2.622816 0,-0.787772 0.15755,-1.557008 0.16683,-0.769235 0.4634,-1.464328 0.29657,-0.695092 0.71363,-1.27897 0.42632,-0.593146 0.93605,-1.019469 0.50974,-0.435591 1.09362,-0.676557 0.59314,-0.250233 1.23263,-0.250233 0.66729,0 1.21409,0.250233 0.54681,0.250233 0.93606,0.704361 l 0.63022,-5.069542 z"
         style="font-style:italic;-inkscape-font-specification:'Lato, Semi-Bold Italic';fill:#003055;fill-opacity:1;stroke:none"
         id="path8793" /><path
         d="m 138.0216,48.047909 c -0.71555,0.02471 -1.32678,0.08341 -1.83369,0.17609 -0.50566,0.0865 -0.92428,0.200805 -1.25586,0.342912 -0.33033,0.135929 -0.58288,0.299662 -0.75767,0.491199 -0.16861,0.191537 -0.2761,0.401609 -0.32248,0.630217 -0.0451,0.22243 -0.05,0.413967 -0.0146,0.57461 0.0428,0.154465 0.11533,0.284216 0.2176,0.389252 0.1097,0.09886 0.24295,0.173001 0.39974,0.22243 0.16423,0.04325 0.34829,0.06488 0.55218,0.06488 0.51901,0 0.98329,-0.09577 1.39286,-0.287305 0.41701,-0.197715 0.8392,-0.481931 1.26659,-0.852647 z m -4.47047,-4.003733 c 1.27071,-0.994755 2.6444,-1.492132 4.12109,-1.492132 0.54371,0 1.00747,0.08959 1.39126,0.268769 0.39123,0.173001 0.69636,0.420145 0.9154,0.741432 0.22521,0.321287 0.36684,0.704361 0.42488,1.14922 0.0655,0.438681 0.0437,0.92679 -0.0654,1.464328 l -0.71603,5.963098 -1.39203,0.0425 c -0.19145,0.0058 -0.3311,-0.0278 -0.41867,-0.08341 -0.0863,-0.06179 -0.1453,-0.18227 -0.17692,-0.361449 l -0.0386,-0.769235 c -0.28484,0.216251 -0.5622,0.410876 -0.83208,0.583877 -0.26863,0.166823 -0.54152,0.308931 -0.81866,0.426324 -0.27095,0.117393 -0.55727,0.203894 -0.85894,0.259501 -0.29676,0.06179 -0.61814,0.09268 -0.96414,0.09268 -0.38307,0 -0.73078,-0.05252 -1.04311,-0.157554 -0.30615,-0.105037 -0.55841,-0.262591 -0.75676,-0.472663 -0.19709,-0.216251 -0.33473,-0.481931 -0.41291,-0.79704 -0.072,-0.315109 -0.0648,-0.685825 0.0217,-1.112148 0.0739,-0.364537 0.24179,-0.719807 0.50352,-1.065808 0.26791,-0.346002 0.65186,-0.654932 1.15187,-0.92679 0.50745,-0.278037 1.14388,-0.506646 1.90931,-0.685825 0.7716,-0.179179 1.69744,-0.281126 2.77753,-0.305841 l 0.12785,-0.630217 c 0.13788,-0.679646 0.0955,-1.186291 -0.12724,-1.519936 -0.22271,-0.333644 -0.61519,-0.500466 -1.17744,-0.500466 -0.38307,0 -0.71439,0.04943 -0.99395,0.148286 -0.2783,0.09268 -0.5245,0.194626 -0.7386,0.305841 -0.21409,0.111215 -0.40531,0.216251 -0.57366,0.315109 -0.16709,0.09268 -0.33404,0.139018 -0.50086,0.139018 -0.13593,0 -0.24643,-0.03398 -0.3315,-0.101947 -0.0776,-0.07414 -0.13669,-0.163733 -0.17717,-0.268769 z"
         style="fill:#003055;fill-opacity:1;stroke:none"
         id="path9082"
         sodipodi:nodetypes="ccccscccsccccscccccsccccccscccsccccssscscsccc" /></g></g></svg>
