<?xml version="1.0" encoding="UTF-8" standalone="no"?>
<!-- Copyright 2000-2021 JetBrains s.r.o. and contributors. Use of this source code is governed by the Apache 2.0 license that can be found in the LICENSE file. -->

<svg
   width="16"
   height="16"
   viewBox="0 0 16 16"
   version="1.1"
   id="svg14"
   sodipodi:docname="systemverilog.svg"
   inkscape:version="1.3.2 (091e20ef0f, 2023-11-25, custom)"
   xml:space="preserve"
   xmlns:inkscape="http://www.inkscape.org/namespaces/inkscape"
   xmlns:sodipodi="http://sodipodi.sourceforge.net/DTD/sodipodi-0.dtd"
   xmlns:xlink="http://www.w3.org/1999/xlink"
   xmlns="http://www.w3.org/2000/svg"
   xmlns:svg="http://www.w3.org/2000/svg"><sodipodi:namedview
     id="namedview1"
     pagecolor="#ffffff"
     bordercolor="#000000"
     borderopacity="0.25"
     inkscape:showpageshadow="2"
     inkscape:pageopacity="0.0"
     inkscape:pagecheckerboard="0"
     inkscape:deskcolor="#d1d1d1"
     inkscape:zoom="36.212329"
     inkscape:cx="12.330055"
     inkscape:cy="2.7891053"
     inkscape:window-width="2560"
     inkscape:window-height="1466"
     inkscape:window-x="0"
     inkscape:window-y="0"
     inkscape:window-maximized="1"
     inkscape:current-layer="text961" /><defs
     id="defs18"><linearGradient
       id="linearGradient3"
       inkscape:collect="always"><stop
         style="stop-color:#edf0c9;stop-opacity:1;"
         offset="0"
         id="stop3" /><stop
         style="stop-color:#17338f;stop-opacity:1;"
         offset="1"
         id="stop4" /></linearGradient><linearGradient
       id="linearGradient1"
       inkscape:collect="always"><stop
         style="stop-color:#aaaaaa;stop-opacity:1;"
         offset="0"
         id="stop1" /><stop
         style="stop-color:#aaaaaa;stop-opacity:0;"
         offset="1"
         id="stop2" /></linearGradient><linearGradient
       inkscape:collect="always"
       xlink:href="#linearGradient1"
       id="linearGradient2"
       x1="1.8586077"
       y1="13.091832"
       x2="11.007616"
       y2="13.091832"
       gradientUnits="userSpaceOnUse" /><linearGradient
       inkscape:collect="always"
       xlink:href="#linearGradient3"
       id="linearGradient4"
       x1="0.99999999"
       y1="12.5"
       x2="16"
       y2="12.5"
       gradientUnits="userSpaceOnUse" /></defs><g
     aria-label="V"
     transform="scale(0.99362154,1.0064194)"
     id="text961"
     style="font-weight:bold;font-size:6.96914px;line-height:1.3;font-family:Arial;-inkscape-font-specification:'Arial, Bold';fill:#503626;fill-opacity:0.909804;stroke-width:0.987753"><g
       id="g3452"><polygon
         fill="#f4af3d"
         fill-opacity="0.7"
         points="16,9 1,9 1,16 16,16 "
         id="polygon2"
         style="fill-rule:evenodd;fill:url(#linearGradient4);fill-opacity:0.69999999"
         transform="scale(1.0064194,0.99362155)" /><polygon
         fill="#9aa7b0"
         fill-opacity="0.8"
         points="7,5 7,1 3,5 "
         id="polygon4"
         style="fill-rule:evenodd"
         transform="scale(1.0064194,0.99362155)" /><polygon
         fill="#9aa7b0"
         fill-opacity="0.8"
         points="3,6 3,8 13,8 13,1 8,1 8,6 "
         id="polygon6"
         style="fill-rule:evenodd"
         transform="scale(1.0064194,0.99362155)" /><path
         d="M 3.8022878,14.935597 2.0191679,9.9469454 H 3.111499 L 4.373975,13.639092 5.5956163,9.9469454 H 6.664127 L 4.8776043,14.935597 Z"
         id="path1247"
         style="display:none;opacity:1;fill:#231f20;fill-opacity:0.698039" /></g><path
       d="m 3.6117497,15.133374 c 1.17,0 1.845,-0.705 1.845,-1.515 0,-0.69 -0.3675,-1.0875 -0.9675,-1.3275 l -0.63,-0.255 c -0.42,-0.1725 -0.7425,-0.2775 -0.7425,-0.5775 0,-0.2775 0.24,-0.4425 0.6225,-0.4425 0.33,0 0.6675,0.1425 0.99,0.375 l 0.585,-0.7125 c -0.42,-0.39 -0.99,-0.615 -1.575,-0.615 -1.02,0 -1.74,0.645 -1.74,1.455 0,0.7125 0.48,1.1325 0.9825,1.3425 l 0.6375,0.2625 c 0.4275,0.18 0.705,0.2775 0.705,0.585 0,0.2925 -0.225,0.4725 -0.6825,0.4725 -0.4275,0 -0.9075,-0.1725 -1.2525,-0.48 l -0.585,0.72 c 0.495,0.4875 1.1475,0.7125 1.8075,0.7125 z m 4.9950039,-0.09 h 1.3275 l 1.5000004,-4.89 h -1.125 l -0.6075004,2.28 c -0.1425,0.54 -0.2475,1.0275 -0.39,1.5675 h -0.03 c -0.15,-0.54 -0.2625,-1.0275 -0.3975,-1.5675 l -0.555,-2.28 h -1.17 z"
       id="text1"
       style="font-size:7.5px;font-family:'Source Sans 3';-inkscape-font-specification:'Source Sans 3, Bold';fill:#23293e;stroke:#0a0000;stroke-width:0"
       transform="scale(1.0064194,0.99362155)"
       aria-label="S V" /></g></svg>
