<?xml version="1.0" encoding="UTF-8" standalone="no"?>
<!-- Copyright 2000-2021 JetBrains s.r.o. and contributors. Use of this source code is governed by the Apache 2.0 license that can be found in the LICENSE file. -->

<svg
   width="16"
   height="16"
   viewBox="0 0 16 16"
   version="1.1"
   id="svg14"
   xmlns="http://www.w3.org/2000/svg"
   xmlns:svg="http://www.w3.org/2000/svg">
  <defs
     id="defs18" />
  <g
     aria-label="V"
     transform="scale(0.99362154,1.0064194)"
     id="text961"
     style="font-weight:bold;font-size:6.96914px;line-height:1.3;font-family:Arial;-inkscape-font-specification:'Arial, Bold';fill:#503626;fill-opacity:0.909804;stroke-width:0.987753">
    <polygon
       fill="#f4af3d"
       fill-opacity="0.7"
       points="1,16 16,16 16,9 1,9 "
       id="polygon2"
       style="fill:#79afd1;fill-opacity:0.69999999;fill-rule:evenodd"
       transform="scale(1.0064194,0.99362155)" />
    <path
       d="m 3.4953538,14.822077 v -4.005801 h -1.502768 v -0.815631 h 4.0246544 v 0.815631 H 4.5179269 v 4.005801 z"
       id="path3733"
       style="font-size:6.90323px;opacity:0.961187;fill:#636e74;fill-opacity:0.839216;stroke-width:0.978411" />
    <path
       d="m 9.5591202,13.049395 0.9914818,0.299284 q -0.228006,0.789321 -0.7600206,1.174114 -0.5285601,0.381505 -1.343855,0.381505 -1.0087546,0 -1.6582266,-0.654478 -0.6494722,-0.657768 -0.6494722,-1.795704 0,-1.203714 0.6529268,-1.868059 0.6529268,-0.6676331 1.7169556,-0.6676331 0.9292978,0 1.509677,0.5229251 0.345465,0.30915 0.518196,0.887985 L 9.5245738,11.559553 Q 9.4347532,11.184625 9.1480182,10.967562 8.8647377,10.750499 8.4570904,10.750499 q -0.5631062,0 -0.9154793,0.384793 -0.3489186,0.384794 -0.3489186,1.246469 0,0.914297 0.3454638,1.302379 0.345464,0.388082 0.8982062,0.388082 0.4076474,0 0.7012917,-0.246662 0.2936443,-0.246662 0.421466,-0.776165 z"
       id="path3735"
       style="font-size:6.90323px;opacity:0.961187;fill:#636e74;fill-opacity:0.839216;stroke-width:0.978411" />
    <path
       d="M 11.428148,14.822077 V 10.04011 h 1.022574 v 3.969625 h 2.542614 v 0.812342 z"
       id="path3737"
       style="font-size:6.90323px;opacity:0.961187;fill:#636e74;fill-opacity:0.839216;stroke-width:0.978411" />
    <polygon
       fill="#9aa7b0"
       fill-opacity="0.8"
       points="3,5 7,5 7,1 "
       id="polygon4"
       style="fill-rule:evenodd"
       transform="scale(1.0064194,0.99362155)" />
    <polygon
       fill="#9aa7b0"
       fill-opacity="0.8"
       points="13,8 13,1 8,1 8,6 3,6 3,8 "
       id="polygon6"
       style="fill-rule:evenodd"
       transform="scale(1.0064194,0.99362155)" />
  </g>
</svg>
