<?xml version="1.0" encoding="UTF-8" standalone="no"?>
<svg
   width="16"
   height="16"
   viewBox="0 0 16 16"
   version="1.1"
   id="svg10"
   xmlns="http://www.w3.org/2000/svg"
   xmlns:svg="http://www.w3.org/2000/svg">
  <defs
     id="defs14" />
  <g
     fill="none"
     fill-rule="evenodd"
     id="g8">
    <path
       fill="#62B543"
       fill-opacity=".6"
       d="M1,8 C1,4.134 4.134,1 8,1 C11.866,1 15,4.134 15,8 L1,8 Z"
       id="path2"
       style="fill:#f98b9e;fill-opacity:0.60000002" />
    <path
       fill="#F4AF3D"
       fill-opacity=".6"
       d="M1,8 L15,8 C15,11.866 11.866,15 8,15 C4.134,15 1,11.866 1,8 Z"
       id="path4" />
    <path
       fill="#231f20"
       fill-opacity="0.7"
       d="M 7.991803,11 C 6.2295079,11 4.9999997,9.6491715 4.9999997,8.0165748 v -0.016575 c 0,-1.6325967 1.2459016,-3 3.0081968,-3 C 9.7704912,4.9999998 11,6.3508285 11,7.9834252 v 0.016575 C 11,9.6325969 9.7540983,11 7.991803,11 Z m 0.016393,-0.944751 c 1.1393443,0 1.9344262,-0.9116024 1.9344262,-2.0386742 v -0.016575 c 0,-1.1270718 -0.8114754,-2.0552486 -1.9508196,-2.0552486 -1.1393443,0 -1.9344263,0.9116022 -1.9344263,2.038674 v 0.016575 c 0,1.1270718 0.8114755,2.0552488 1.9508197,2.0552488 z"
       id="path257" />
  </g>
</svg>
